 
             The Legacy (La Donation) 2009 DVDRip Xvid fasamoo LKRG


RIPPER                           : fasamoo
Format                           : AVI
Format/Info                      : Audio Video Interleave
File size                        : 600 MiB
Duration                         : 1h 34mn
Overall bit rate                 : 884 Kbps
Writing application              : VirtualDubMod 1.5.4.1 (build 2178/release)
Writing library                  : VirtualDubMod build 2178/release
Language                         : French
Subtitles                        : English(*.srt)
Genre                            : Drama       

Video
ID                               : 0
Format                           : MPEG-4 Visual
Format profile                   : Advanced Simple@L5
Format settings, BVOP            : Yes
Format settings, QPel            : No
Format settings, GMC             : No warppoints
Format settings, Matrix          : Custom
Codec ID                         : XVID
Codec ID/Hint                    : XviD
Duration                         : 1h 34mn
Bit rate                         : 758 Kbps
Width                            : 720 pixels
Height                           : 384 pixels
Display aspect ratio             : 1.875
Frame rate                       : 25.000 fps
Color space                      : YUV
Chroma subsampling               : 4:2:0
Bit depth                        : 8 bits
Scan type                        : Progressive
Bits/(Pixel*Frame)               : 0.110
Stream size                      : 514 MiB (86%)
Writing library                  : XviD 1.2.1 (UTC 2008-12-04)

Audio
ID                               : 1
Format                           : MPEG Audio
Format version                   : Version 1
Format profile                   : Layer 3
Mode                             : Joint stereo
Mode extension                   : MS Stereo
Codec ID                         : 55
Codec ID/Hint                    : MP3
Duration                         : 1h 34mn
Bit rate mode                    : Variable
Bit rate                         : 113 Kbps
Nominal bit rate                 : 128 Kbps
Channel(s)                       : 2 channels
Sampling rate                    : 48.0 KHz
Stream size                      : 76.8 MiB (13%)
Alignment                        : Aligned on interleaves
Interleave, duration             : 24 ms (0.60 video frame)
Interleave, preload duration     : 620 ms
Writing library                  : LAME3.98r
Encoding settings                : -m j -V 4 -q 2 -lowpass 17 --abr 128


PLOT

Dr. Rainville, an aging country doctor with a deep attachment to his patients, is about to retire and is looking for a successor. Jeanne Dion, an emergency room doctor from Montreal, agrees to go to Normétal to replace him for a few weeks, with no plans for an extended stay. When Dr. Rainville suddenly dies, Jeanne must decide if she'll take over the job, and its inherent responsibilities, for the long-term.



                                 IMBD
                     
                 http://www.imdb.com/title/tt1345468/
 
http://leetleech.org/images/66962577720538834439.png 
http://leetleech.org/images/42383461834068191249.png 
http://leetleech.org/images/59445600328403250594.png 
http://leetleech.org/images/05779719618332405922.png 
http://leetleech.org/images/61085453742636315356.png 
http://leetleech.org/images/19978175371561399753.png

